# xmcd CD database file
#
# Track frame offsets:
#	150
#	37423
#	58834
#	73102
#	88327
#	113222
#	139930
#	163583
#	187089
#	215349
#	244405
#	264450
#	296841
#
# Disc length: 4286 seconds
#
# Revision: 0
# Processed by: cddbd v1.5.2PL0 Copyright (c) Steve Scherf et al.
# Submitted via: CDex 1.70beta2
#
DISCID=dc10bc0d
DTITLE=Various Artist - A History of SCHEMA Jazz Fantastico! 
DYEAR=2007
DGENRE=Jazz
TTITLE0=New Standards/Nicola Conte,Gianluca Petrella
TTITLE1=Inviolatin/ジェラルド・フリシナ
TTITLE2=Night In Warsaw/ケニー・クラーク＝フランシー・ボラン・ビッグ・バンド
TTITLE3=Wives and Lovers/Kenny Clarke-Francy Boland Sextet
TTITLE4=Herr Fixit/サヒブ・シハブ
TTITLE5=Snap Count/Quintetto Lo Greco
TTITLE6=Circus In C Minor/Paolo Fedreghini,Marco Bianchi
TTITLE7=My Inspiration/Invisible Session
TTITLE8=Foot Patting/ジョニー・グリフィン
TTITLE9=Mr.Bond/カルテット・モデルノ
TTITLE10=Lilemor/Kenny Clarke-Francy Boland Sextet
TTITLE11=Adriana/Rosalia De Souza,The Five Corners Quintet
TTITLE12=Metti Una Sera a Cena/バランソ
EXTD=YEAR: 2007
EXTT0=
EXTT1=
EXTT2=
EXTT3=
EXTT4=
EXTT5=
EXTT6=
EXTT7=
EXTT8=
EXTT9=
EXTT10=
EXTT11=
EXTT12=
PLAYORDER=
